<mxfile host="app.diagrams.net" modified="2021-12-02T09:04:34.099Z" agent="5.0 (Windows NT 10.0; Win64; x64) AppleWebKit/537.36 (KHTML, like Gecko) Chrome/96.0.4664.45 Safari/537.36" etag="dzjzv51NF2wsyuenoF4w" version="15.8.8" type="github">
  <diagram id="HBi1pNmcNX5vkn8XSMso" name="Page-1">
    <mxGraphModel dx="2048" dy="566" grid="1" gridSize="10" guides="1" tooltips="1" connect="1" arrows="1" fold="1" page="1" pageScale="1" pageWidth="827" pageHeight="1169" math="0" shadow="0">
      <root>
        <mxCell id="0" />
        <mxCell id="1" parent="0" />
        <mxCell id="lCqzkr6qrd2vFwXqaDv7-82" value="" style="edgeStyle=orthogonalEdgeStyle;rounded=0;orthogonalLoop=1;jettySize=auto;html=1;" edge="1" parent="1" target="lCqzkr6qrd2vFwXqaDv7-81">
          <mxGeometry relative="1" as="geometry">
            <mxPoint x="55" y="110" as="sourcePoint" />
          </mxGeometry>
        </mxCell>
        <mxCell id="lCqzkr6qrd2vFwXqaDv7-70" value="User" style="shape=umlActor;verticalLabelPosition=bottom;verticalAlign=top;html=1;" vertex="1" parent="1">
          <mxGeometry x="40" y="30" width="30" height="60" as="geometry" />
        </mxCell>
        <mxCell id="lCqzkr6qrd2vFwXqaDv7-79" value="LoginPage" style="whiteSpace=wrap;html=1;align=center;fillColor=#f8cecc;strokeColor=#B83B37;" vertex="1" parent="1">
          <mxGeometry x="150" y="30" width="100" height="40" as="geometry" />
        </mxCell>
        <mxCell id="lCqzkr6qrd2vFwXqaDv7-80" value="" style="endArrow=none;dashed=1;html=1;rounded=0;startArrow=none;" edge="1" parent="1" source="lCqzkr6qrd2vFwXqaDv7-81">
          <mxGeometry width="50" height="50" relative="1" as="geometry">
            <mxPoint x="54.5" y="520" as="sourcePoint" />
            <mxPoint x="54.5" y="110" as="targetPoint" />
          </mxGeometry>
        </mxCell>
        <mxCell id="lCqzkr6qrd2vFwXqaDv7-81" value="" style="whiteSpace=wrap;html=1;verticalAlign=top;direction=south;" vertex="1" parent="1">
          <mxGeometry x="45" y="140" width="20" height="50" as="geometry" />
        </mxCell>
        <mxCell id="lCqzkr6qrd2vFwXqaDv7-83" value="" style="endArrow=none;dashed=1;html=1;rounded=0;startArrow=none;" edge="1" parent="1" source="lCqzkr6qrd2vFwXqaDv7-89" target="lCqzkr6qrd2vFwXqaDv7-81">
          <mxGeometry width="50" height="50" relative="1" as="geometry">
            <mxPoint x="54.5" y="520" as="sourcePoint" />
            <mxPoint x="54.5" y="110" as="targetPoint" />
          </mxGeometry>
        </mxCell>
        <mxCell id="lCqzkr6qrd2vFwXqaDv7-84" value="" style="endArrow=none;dashed=1;html=1;rounded=0;strokeColor=#FF4A4A;startArrow=none;" edge="1" parent="1" source="lCqzkr6qrd2vFwXqaDv7-94">
          <mxGeometry width="50" height="50" relative="1" as="geometry">
            <mxPoint x="200" y="520" as="sourcePoint" />
            <mxPoint x="200.44927536231876" y="70" as="targetPoint" />
          </mxGeometry>
        </mxCell>
        <mxCell id="lCqzkr6qrd2vFwXqaDv7-85" value="" style="whiteSpace=wrap;html=1;verticalAlign=top;direction=south;strokeColor=#b85450;fillColor=#f8cecc;" vertex="1" parent="1">
          <mxGeometry x="190" y="140" width="20" height="50" as="geometry" />
        </mxCell>
        <mxCell id="lCqzkr6qrd2vFwXqaDv7-87" value="" style="endArrow=classic;html=1;rounded=0;strokeColor=#0F0F0F;entryX=0.5;entryY=1;entryDx=0;entryDy=0;exitX=0.5;exitY=0;exitDx=0;exitDy=0;" edge="1" parent="1" source="lCqzkr6qrd2vFwXqaDv7-81" target="lCqzkr6qrd2vFwXqaDv7-85">
          <mxGeometry width="50" height="50" relative="1" as="geometry">
            <mxPoint x="65" y="160" as="sourcePoint" />
            <mxPoint x="115" y="110" as="targetPoint" />
          </mxGeometry>
        </mxCell>
        <mxCell id="lCqzkr6qrd2vFwXqaDv7-88" value="Enter user name" style="text;strokeColor=none;fillColor=none;align=left;verticalAlign=middle;spacingLeft=4;spacingRight=4;overflow=hidden;points=[[0,0.5],[1,0.5]];portConstraint=eastwest;rotatable=0;" vertex="1" parent="1">
          <mxGeometry x="65" y="160" width="105" height="30" as="geometry" />
        </mxCell>
        <mxCell id="lCqzkr6qrd2vFwXqaDv7-89" value="" style="whiteSpace=wrap;html=1;verticalAlign=top;direction=south;" vertex="1" parent="1">
          <mxGeometry x="45" y="220" width="20" height="50" as="geometry" />
        </mxCell>
        <mxCell id="lCqzkr6qrd2vFwXqaDv7-90" value="" style="endArrow=none;dashed=1;html=1;rounded=0;startArrow=none;" edge="1" parent="1" source="lCqzkr6qrd2vFwXqaDv7-92" target="lCqzkr6qrd2vFwXqaDv7-89">
          <mxGeometry width="50" height="50" relative="1" as="geometry">
            <mxPoint x="54.5" y="520" as="sourcePoint" />
            <mxPoint x="54.964788732394254" y="190" as="targetPoint" />
          </mxGeometry>
        </mxCell>
        <mxCell id="lCqzkr6qrd2vFwXqaDv7-91" value="" style="whiteSpace=wrap;html=1;verticalAlign=top;direction=south;strokeColor=#b85450;fillColor=#f8cecc;" vertex="1" parent="1">
          <mxGeometry x="190" y="220" width="20" height="50" as="geometry" />
        </mxCell>
        <mxCell id="lCqzkr6qrd2vFwXqaDv7-92" value="" style="whiteSpace=wrap;html=1;verticalAlign=top;direction=south;" vertex="1" parent="1">
          <mxGeometry x="45" y="300" width="20" height="50" as="geometry" />
        </mxCell>
        <mxCell id="lCqzkr6qrd2vFwXqaDv7-93" value="" style="endArrow=none;dashed=1;html=1;rounded=0;startArrow=none;" edge="1" parent="1" source="lCqzkr6qrd2vFwXqaDv7-120" target="lCqzkr6qrd2vFwXqaDv7-92">
          <mxGeometry width="50" height="50" relative="1" as="geometry">
            <mxPoint x="55" y="560" as="sourcePoint" />
            <mxPoint x="54.954545454545496" y="270" as="targetPoint" />
          </mxGeometry>
        </mxCell>
        <mxCell id="lCqzkr6qrd2vFwXqaDv7-94" value="" style="whiteSpace=wrap;html=1;verticalAlign=top;direction=south;strokeColor=#b85450;fillColor=#f8cecc;" vertex="1" parent="1">
          <mxGeometry x="190" y="300" width="20" height="50" as="geometry" />
        </mxCell>
        <mxCell id="lCqzkr6qrd2vFwXqaDv7-95" value="" style="endArrow=none;dashed=1;html=1;rounded=0;strokeColor=#FF4A4A;startArrow=none;" edge="1" parent="1" source="lCqzkr6qrd2vFwXqaDv7-111" target="lCqzkr6qrd2vFwXqaDv7-94">
          <mxGeometry width="50" height="50" relative="1" as="geometry">
            <mxPoint x="200" y="520" as="sourcePoint" />
            <mxPoint x="200.44927536231876" y="70" as="targetPoint" />
          </mxGeometry>
        </mxCell>
        <mxCell id="lCqzkr6qrd2vFwXqaDv7-96" value="" style="endArrow=classic;html=1;rounded=0;strokeColor=#0F0F0F;entryX=0.5;entryY=1;entryDx=0;entryDy=0;exitX=0.5;exitY=0;exitDx=0;exitDy=0;" edge="1" parent="1">
          <mxGeometry width="50" height="50" relative="1" as="geometry">
            <mxPoint x="65" y="240" as="sourcePoint" />
            <mxPoint x="190" y="240" as="targetPoint" />
          </mxGeometry>
        </mxCell>
        <mxCell id="lCqzkr6qrd2vFwXqaDv7-97" value="Enter password" style="text;strokeColor=none;fillColor=none;align=left;verticalAlign=middle;spacingLeft=4;spacingRight=4;overflow=hidden;points=[[0,0.5],[1,0.5]];portConstraint=eastwest;rotatable=0;" vertex="1" parent="1">
          <mxGeometry x="65" y="250" width="105" height="20" as="geometry" />
        </mxCell>
        <mxCell id="lCqzkr6qrd2vFwXqaDv7-98" value="Authentication Module" style="whiteSpace=wrap;html=1;align=center;strokeColor=#5EFF00;strokeWidth=3;" vertex="1" parent="1">
          <mxGeometry x="340" y="30" width="100" height="40" as="geometry" />
        </mxCell>
        <mxCell id="lCqzkr6qrd2vFwXqaDv7-99" value="" style="endArrow=none;dashed=1;html=1;rounded=0;strokeColor=#82b366;entryX=0.5;entryY=1;entryDx=0;entryDy=0;fillColor=#d5e8d4;startArrow=none;" edge="1" parent="1" source="lCqzkr6qrd2vFwXqaDv7-102" target="lCqzkr6qrd2vFwXqaDv7-98">
          <mxGeometry width="50" height="50" relative="1" as="geometry">
            <mxPoint x="390" y="520.7999877929688" as="sourcePoint" />
            <mxPoint x="430" y="220" as="targetPoint" />
          </mxGeometry>
        </mxCell>
        <mxCell id="lCqzkr6qrd2vFwXqaDv7-100" value="" style="endArrow=classic;html=1;rounded=0;strokeColor=#0F0F0F;entryX=0.5;entryY=1;entryDx=0;entryDy=0;exitX=0.5;exitY=0;exitDx=0;exitDy=0;" edge="1" parent="1">
          <mxGeometry width="50" height="50" relative="1" as="geometry">
            <mxPoint x="65" y="324.5" as="sourcePoint" />
            <mxPoint x="190" y="324.5" as="targetPoint" />
          </mxGeometry>
        </mxCell>
        <mxCell id="lCqzkr6qrd2vFwXqaDv7-101" value="Click on the Login" style="text;strokeColor=none;fillColor=none;align=left;verticalAlign=middle;spacingLeft=4;spacingRight=4;overflow=hidden;points=[[0,0.5],[1,0.5]];portConstraint=eastwest;rotatable=0;" vertex="1" parent="1">
          <mxGeometry x="70" y="330" width="105" height="20" as="geometry" />
        </mxCell>
        <mxCell id="lCqzkr6qrd2vFwXqaDv7-102" value="" style="rounded=0;whiteSpace=wrap;html=1;strokeColor=#A5E090;strokeWidth=3;fillColor=#d5e8d4;direction=south;" vertex="1" parent="1">
          <mxGeometry x="380" y="300" width="20" height="190" as="geometry" />
        </mxCell>
        <mxCell id="lCqzkr6qrd2vFwXqaDv7-104" value="" style="endArrow=none;dashed=1;html=1;rounded=0;strokeColor=#82b366;fillColor=#d5e8d4;entryX=1;entryY=0.5;entryDx=0;entryDy=0;" edge="1" parent="1" target="lCqzkr6qrd2vFwXqaDv7-102">
          <mxGeometry width="50" height="50" relative="1" as="geometry">
            <mxPoint x="390" y="560" as="sourcePoint" />
            <mxPoint x="390" y="460" as="targetPoint" />
          </mxGeometry>
        </mxCell>
        <mxCell id="lCqzkr6qrd2vFwXqaDv7-105" value="" style="endArrow=classic;html=1;rounded=0;strokeColor=#0F0F0F;exitX=0.5;exitY=0;exitDx=0;exitDy=0;entryX=0.134;entryY=1.02;entryDx=0;entryDy=0;entryPerimeter=0;" edge="1" parent="1" target="lCqzkr6qrd2vFwXqaDv7-102">
          <mxGeometry width="50" height="50" relative="1" as="geometry">
            <mxPoint x="210" y="324.5" as="sourcePoint" />
            <mxPoint x="370" y="325" as="targetPoint" />
          </mxGeometry>
        </mxCell>
        <mxCell id="lCqzkr6qrd2vFwXqaDv7-106" value="Send user login info" style="text;strokeColor=none;fillColor=none;align=left;verticalAlign=middle;spacingLeft=4;spacingRight=4;overflow=hidden;points=[[0,0.5],[1,0.5]];portConstraint=eastwest;rotatable=0;" vertex="1" parent="1">
          <mxGeometry x="220" y="330" width="120" height="20" as="geometry" />
        </mxCell>
        <mxCell id="lCqzkr6qrd2vFwXqaDv7-109" value="" style="html=1;points=[];perimeter=orthogonalPerimeter;strokeColor=#A5E090;strokeWidth=3;" vertex="1" parent="1">
          <mxGeometry x="396" y="330" width="10" height="40" as="geometry" />
        </mxCell>
        <mxCell id="lCqzkr6qrd2vFwXqaDv7-110" value="validate user pass" style="edgeStyle=orthogonalEdgeStyle;html=1;align=left;spacingLeft=2;endArrow=block;rounded=0;entryX=1;entryY=0;strokeColor=#070F06;" edge="1" target="lCqzkr6qrd2vFwXqaDv7-109" parent="1">
          <mxGeometry relative="1" as="geometry">
            <mxPoint x="401" y="310" as="sourcePoint" />
            <Array as="points">
              <mxPoint x="431" y="310" />
            </Array>
          </mxGeometry>
        </mxCell>
        <mxCell id="lCqzkr6qrd2vFwXqaDv7-111" value="" style="whiteSpace=wrap;html=1;verticalAlign=top;direction=south;strokeColor=#b85450;fillColor=#f8cecc;" vertex="1" parent="1">
          <mxGeometry x="190" y="370" width="20" height="80" as="geometry" />
        </mxCell>
        <mxCell id="lCqzkr6qrd2vFwXqaDv7-112" value="" style="endArrow=none;dashed=1;html=1;rounded=0;strokeColor=#FF4A4A;startArrow=none;" edge="1" parent="1" source="lCqzkr6qrd2vFwXqaDv7-116" target="lCqzkr6qrd2vFwXqaDv7-111">
          <mxGeometry width="50" height="50" relative="1" as="geometry">
            <mxPoint x="200" y="560" as="sourcePoint" />
            <mxPoint x="200" y="350" as="targetPoint" />
          </mxGeometry>
        </mxCell>
        <mxCell id="lCqzkr6qrd2vFwXqaDv7-113" value="User login accepted" style="html=1;verticalAlign=bottom;endArrow=open;dashed=1;endSize=8;rounded=0;strokeColor=#070F06;exitX=0.441;exitY=1.06;exitDx=0;exitDy=0;exitPerimeter=0;entryX=0.172;entryY=-0.04;entryDx=0;entryDy=0;entryPerimeter=0;" edge="1" parent="1" source="lCqzkr6qrd2vFwXqaDv7-102" target="lCqzkr6qrd2vFwXqaDv7-111">
          <mxGeometry relative="1" as="geometry">
            <mxPoint x="290" y="374.5" as="sourcePoint" />
            <mxPoint x="210" y="374.5" as="targetPoint" />
          </mxGeometry>
        </mxCell>
        <mxCell id="lCqzkr6qrd2vFwXqaDv7-115" value="Redirect to the target page" style="edgeStyle=orthogonalEdgeStyle;html=1;align=left;spacingLeft=2;endArrow=block;rounded=0;entryX=1;entryY=0;strokeColor=#070F06;" edge="1" parent="1">
          <mxGeometry relative="1" as="geometry">
            <mxPoint x="210" y="400" as="sourcePoint" />
            <Array as="points">
              <mxPoint x="240" y="400" />
              <mxPoint x="240" y="420" />
            </Array>
            <mxPoint x="215" y="420" as="targetPoint" />
          </mxGeometry>
        </mxCell>
        <mxCell id="lCqzkr6qrd2vFwXqaDv7-116" value="" style="whiteSpace=wrap;html=1;verticalAlign=top;direction=south;strokeColor=#b85450;fillColor=#f8cecc;" vertex="1" parent="1">
          <mxGeometry x="190" y="480" width="20" height="50" as="geometry" />
        </mxCell>
        <mxCell id="lCqzkr6qrd2vFwXqaDv7-117" value="" style="endArrow=none;dashed=1;html=1;rounded=0;strokeColor=#FF4A4A;" edge="1" parent="1" target="lCqzkr6qrd2vFwXqaDv7-116">
          <mxGeometry width="50" height="50" relative="1" as="geometry">
            <mxPoint x="200" y="560" as="sourcePoint" />
            <mxPoint x="200" y="450" as="targetPoint" />
          </mxGeometry>
        </mxCell>
        <mxCell id="lCqzkr6qrd2vFwXqaDv7-118" value="User login rejected" style="html=1;verticalAlign=bottom;endArrow=open;dashed=1;endSize=8;rounded=0;strokeColor=#070F06;entryX=0;entryY=0;entryDx=0;entryDy=0;" edge="1" parent="1" target="lCqzkr6qrd2vFwXqaDv7-116">
          <mxGeometry relative="1" as="geometry">
            <mxPoint x="380" y="480" as="sourcePoint" />
            <mxPoint x="219.99999999999994" y="480" as="targetPoint" />
          </mxGeometry>
        </mxCell>
        <mxCell id="lCqzkr6qrd2vFwXqaDv7-119" value="Clear the password box and inform about unaccepted user-pass combination" style="html=1;verticalAlign=bottom;endArrow=open;dashed=1;endSize=8;rounded=0;strokeColor=#070F06;" edge="1" parent="1">
          <mxGeometry x="-0.0863" y="55" relative="1" as="geometry">
            <mxPoint x="190" y="520" as="sourcePoint" />
            <mxPoint x="60" y="521" as="targetPoint" />
            <mxPoint as="offset" />
          </mxGeometry>
        </mxCell>
        <mxCell id="lCqzkr6qrd2vFwXqaDv7-120" value="" style="whiteSpace=wrap;html=1;verticalAlign=top;direction=south;" vertex="1" parent="1">
          <mxGeometry x="45" y="490" width="20" height="50" as="geometry" />
        </mxCell>
        <mxCell id="lCqzkr6qrd2vFwXqaDv7-121" value="" style="endArrow=none;dashed=1;html=1;rounded=0;" edge="1" parent="1" target="lCqzkr6qrd2vFwXqaDv7-120">
          <mxGeometry width="50" height="50" relative="1" as="geometry">
            <mxPoint x="55" y="560" as="sourcePoint" />
            <mxPoint x="55" y="350" as="targetPoint" />
          </mxGeometry>
        </mxCell>
      </root>
    </mxGraphModel>
  </diagram>
</mxfile>
